Coordinates
version=1
nRows=49
nColumns=12
inDegrees=yes

Units are S.I. units (second, meters, Newtons, ...)
Angles are in degrees

endheader
time	SC_y	SC_z	SC_x	AC_y	AC_z	AC_x	GH_y	GH_z	GH_yy	EL_x	PS_y
       0.0              -48.18          27.82          63.79          67.73         -6.393          9.482          28.18          50.17          133.6          120.4          63.63
   0.04866              -48.18          27.82          63.78          67.73         -6.391          9.478          28.19          50.17          133.5          120.4          63.64
   0.09732              -48.18          27.81          63.78          67.73          -6.39          9.473          28.19          50.17          133.5          120.4          63.65
     0.146              -48.18          27.81          63.77          67.72         -6.388          9.469           28.2          50.17          133.4          120.4          63.66
    0.1946              -48.18          27.81          63.77          67.72         -6.386          9.464          28.21          50.17          133.4          120.4          63.67
    0.2433              -48.18           27.8          63.76          67.71         -6.384          9.458          28.22          50.17          133.3          120.4          63.68
     0.292              -48.18           27.8          63.75          67.71         -6.382          9.453          28.23          50.17          133.3          120.4          63.69
    0.3406              -48.18          27.79          63.75           67.7          -6.38          9.447          28.24          50.17          133.2          120.4           63.7
    0.3893              -48.18          27.79          63.74          67.69         -6.378           9.44          28.25          50.17          133.2          120.4          63.72
    0.4379              -48.18          27.78          63.73          67.69         -6.375          9.433          28.26          50.17          133.1          120.4          63.73
    0.4866              -48.18          27.78          63.72          67.68         -6.372          9.426          28.27          50.17          133.0          120.4          63.74
    0.5353              -48.18          27.77          63.71          67.67         -6.369          9.418          28.28          50.17          133.0          120.4          63.76
    0.5839              -48.18          27.76           63.7          67.66         -6.366          9.409           28.3          50.17          132.9          120.4          63.78
    0.6326              -48.18          27.76          63.69          67.66         -6.363            9.4          28.31          50.17          132.8          120.4          63.79
    0.6812              -48.18          27.75          63.67          67.65         -6.359           9.39          28.33          50.17          132.7          120.4          63.81
    0.7299              -48.18          27.74          63.66          67.64         -6.355          9.379          28.35          50.17          132.6          120.3          63.84
    0.7786              -48.18          27.73          63.65          67.62         -6.351          9.367          28.36          50.17          132.5          120.3          63.86
    0.8272              -48.18          27.72          63.63          67.61         -6.346          9.354          28.39          50.17          132.3          120.3          63.88
    0.8759              -48.18          27.71          63.61           67.6         -6.341          9.339          28.41          50.17          132.2          120.3          63.91
    0.9245              -48.18          27.69          63.59          67.58         -6.335          9.324          28.43          50.17          132.1          120.3          63.94
    0.9732              -48.18          27.68          63.57          67.57         -6.329          9.307          28.46          50.17          131.9          120.3          63.98
     1.022              -48.18          27.67          63.55          67.55         -6.322          9.288          28.49          50.17          131.7          120.3          64.01
     1.071              -48.18          27.65          63.52          67.53         -6.315          9.267          28.52          50.17          131.5          120.3          64.05
     1.119              -48.18          27.63          63.49          67.51         -6.306          9.244          28.56          50.17          131.3          120.2           64.1
     1.168              -48.18          27.61          63.46          67.48         -6.297          9.218           28.6          50.17          131.1          120.2          64.15
     1.216              -48.18          27.59          63.43          67.46         -6.286           9.19          28.65          50.17          130.8          120.2          64.21
     1.265              -48.18          27.56          63.39          67.43         -6.275          9.158           28.7          50.18          130.5          120.2          64.27
     1.314              -48.18          27.53          63.34          67.39         -6.262          9.122          28.76          50.18          130.1          120.1          64.34
     1.362              -48.18           27.5          63.29          67.35         -6.247          9.081          28.82          50.18          129.7          120.1          64.42
     1.411              -48.18          27.46          63.23          67.31          -6.23          9.035           28.9          50.18          129.3          120.1          64.51
      1.46              -48.18          27.42          63.17          67.26         -6.211          8.982          28.98          50.18          128.8          120.0          64.61
     1.508              -48.18          27.37          63.09           67.2         -6.189          8.922          29.08          50.18          128.2          120.0          64.73
     1.557              -48.18          27.32          63.01          67.14         -6.163          8.852          29.19          50.18          127.6          119.9          64.87
     1.606              -48.18          27.25          62.91          67.06         -6.134          8.771          29.32          50.19          126.8          119.8          65.03
     1.654              -48.18          27.18          62.79          66.97         -6.099          8.676          29.47          50.19          125.9          119.8          65.21
     1.703              -48.19          27.09          62.65          66.86         -6.058          8.564          29.65          50.19          124.8          119.7          65.43
     1.752              -48.19          26.98          62.48          66.74          -6.01          8.431          29.86           50.2          123.5          119.6          65.69
       1.8              -48.19          26.85          62.28          66.58         -5.952          8.271          30.12           50.2          122.0          119.4           66.0
     1.849              -48.19           26.7          62.04           66.4         -5.881          8.078          30.43          50.21          120.2          119.3          66.38
     1.898              -48.19          26.51          61.75          66.18         -5.795          7.842           30.8          50.22          117.9          119.1          66.84
     1.946              -48.19          26.27          61.39           65.9         -5.689          7.551          31.27          50.22          115.1          118.8          67.41
     1.995               -48.2          25.98          60.94          65.56         -5.557          7.188          31.85          50.24          111.7          118.5          68.12
     2.044               -48.2          25.62          60.37          65.12         -5.391          6.731          32.58          50.25          107.3          118.2          69.01
     2.092              -48.21          25.15          59.65          64.57         -5.179           6.15          33.51          50.27          101.8          117.7          70.15
     2.141              -48.21          24.56          58.72          63.86         -4.908          5.407           34.7          50.29          94.68          117.1           71.6
      2.19              -48.22          23.79          57.54          62.96          -4.56          4.452          36.23          50.32          85.57          116.3          73.47
     2.238              -48.23          22.81          56.02           61.8         -4.116          3.233          38.18          50.36          73.93          115.3          75.86
     2.287              -48.25          21.59          54.11          60.34         -3.558            1.7          40.64           50.4           59.3          114.0          78.85
     2.336              -48.27          20.09          51.79          58.57         -2.877        -0.1674          43.63          50.46          41.48          112.5          82.51
